<svg id="svg" version="1.1" width="400" height="400" viewBox="0 0 400 400" xmlns="http://www.w3.org/2000/svg" xmlns:xlink="http://www.w3.org/1999/xlink" ><g id="svgg"><path id="path0" d="M124.000 143.623 C 123.230 143.800,121.430 144.151,120.000 144.404 C 106.178 146.848,92.527 156.027,84.131 168.523 C 82.383 171.125,79.200 177.010,79.200 177.641 C 79.200 177.843,78.858 178.772,78.440 179.704 C 78.022 180.637,77.560 181.850,77.413 182.400 C 77.266 182.950,76.963 184.030,76.740 184.800 C 74.645 192.016,74.600 193.629,74.600 261.000 L 74.600 324.200 94.000 324.200 L 113.400 324.200 113.600 259.600 L 113.800 195.000 115.122 192.253 C 117.413 187.491,121.844 183.636,126.400 182.441 C 127.739 182.090,138.231 181.998,167.400 182.084 L 206.600 182.200 209.400 183.591 C 213.018 185.389,216.096 188.470,217.740 191.940 L 219.000 194.600 219.114 215.271 C 219.223 235.145,219.196 236.031,218.419 238.242 C 216.868 242.656,213.614 246.289,209.262 248.467 L 206.600 249.800 169.200 250.000 L 131.800 250.200 131.696 269.500 L 131.592 288.800 166.627 288.800 C 206.625 288.800,213.033 288.456,219.000 285.987 C 219.440 285.805,220.520 285.438,221.400 285.172 C 230.917 282.296,243.126 272.368,249.651 262.200 C 250.909 260.240,254.400 253.067,254.400 252.442 C 254.400 252.193,254.575 251.677,254.789 251.295 C 255.763 249.559,256.988 244.463,257.649 239.400 C 258.278 234.583,258.570 200.654,258.024 195.800 C 257.474 190.906,256.847 186.933,256.416 185.600 C 256.238 185.050,255.861 183.790,255.577 182.800 C 255.293 181.810,254.912 180.829,254.730 180.620 C 254.549 180.411,254.400 179.945,254.400 179.585 C 254.400 178.513,250.668 171.216,248.577 168.200 C 245.196 163.323,242.378 160.167,238.396 156.800 C 237.226 155.810,236.040 154.775,235.762 154.500 C 235.485 154.225,235.092 154.000,234.891 154.000 C 234.689 154.000,234.198 153.640,233.800 153.200 C 233.402 152.760,232.893 152.400,232.670 152.400 C 232.446 152.400,231.979 152.144,231.631 151.831 C 230.723 151.012,223.117 147.208,222.380 147.203 C 222.039 147.202,221.589 147.051,221.380 146.870 C 221.171 146.688,220.190 146.307,219.200 146.024 C 218.210 145.741,217.040 145.362,216.600 145.183 C 216.160 145.004,214.540 144.656,213.000 144.409 C 211.460 144.162,209.432 143.790,208.494 143.580 C 206.412 143.116,126.030 143.156,124.000 143.623 " stroke="none" fill="#ffffff" fill-rule="evenodd"></path><path id="path1" d="M58.000 34.800 C 57.568 35.399,56.965 35.600,55.600 35.600 C 54.235 35.600,53.632 35.801,53.200 36.400 C 52.882 36.841,52.165 37.200,51.600 37.200 C 51.035 37.200,50.318 37.559,50.000 38.000 C 49.682 38.441,48.965 38.800,48.400 38.800 C 47.835 38.800,47.118 39.159,46.800 39.600 C 46.461 40.070,45.765 40.400,45.112 40.400 C 44.390 40.400,44.000 40.611,44.000 41.000 C 44.000 41.333,43.644 41.600,43.200 41.600 C 42.667 41.600,42.400 41.867,42.400 42.400 C 42.400 42.840,42.215 43.200,41.989 43.200 C 41.343 43.200,38.000 46.711,38.000 47.389 C 38.000 47.733,37.651 48.000,37.200 48.000 C 36.667 48.000,36.400 48.267,36.400 48.800 C 36.400 49.333,36.133 49.600,35.600 49.600 C 34.992 49.600,34.800 49.867,34.800 50.712 C 34.800 51.365,34.470 52.061,34.000 52.400 C 33.559 52.718,33.200 53.435,33.200 54.000 C 33.200 54.565,32.841 55.282,32.400 55.600 C 31.938 55.933,31.600 56.635,31.600 57.261 C 31.600 57.995,31.341 58.428,30.800 58.600 C 30.142 58.809,30.000 59.205,30.000 60.827 C 30.000 61.912,29.820 62.800,29.600 62.800 C 29.380 62.800,29.200 63.160,29.200 63.600 C 29.200 64.040,29.020 64.400,28.800 64.400 C 27.890 64.400,28.290 346.944,29.200 347.600 C 29.799 348.032,30.000 348.635,30.000 350.000 C 30.000 351.365,30.201 351.968,30.800 352.400 C 31.342 352.791,31.600 353.435,31.600 354.400 C 31.600 355.365,31.858 356.009,32.400 356.400 C 32.841 356.718,33.200 357.435,33.200 358.000 C 33.200 358.565,33.559 359.282,34.000 359.600 C 34.440 359.917,34.800 360.331,34.800 360.520 C 34.800 360.708,35.520 361.554,36.400 362.400 C 37.455 363.414,38.000 364.288,38.000 364.969 C 38.000 365.733,38.207 366.000,38.800 366.000 C 39.333 366.000,39.600 366.267,39.600 366.800 C 39.600 367.324,39.867 367.600,40.373 367.600 C 40.798 367.600,41.260 367.960,41.400 368.400 C 41.540 368.840,41.962 369.200,42.339 369.200 C 42.715 369.200,43.283 369.560,43.600 370.000 C 43.917 370.440,44.497 370.800,44.888 370.800 C 45.333 370.800,45.600 371.100,45.600 371.600 C 45.600 372.208,45.867 372.400,46.712 372.400 C 47.365 372.400,48.061 372.730,48.400 373.200 C 48.718 373.641,49.435 374.000,50.000 374.000 C 50.565 374.000,51.282 374.359,51.600 374.800 C 52.002 375.357,52.635 375.600,53.688 375.600 C 54.933 375.600,55.200 375.741,55.200 376.400 C 55.200 377.137,55.467 377.200,58.571 377.200 C 61.035 377.200,62.104 377.362,62.543 377.800 C 63.456 378.713,335.744 378.713,336.657 377.800 C 337.093 377.364,338.155 377.200,340.540 377.200 C 343.365 377.200,343.904 377.088,344.400 376.400 C 344.838 375.792,345.435 375.600,346.888 375.600 C 348.533 375.600,348.800 375.488,348.800 374.800 C 348.800 374.133,349.067 374.000,350.400 374.000 C 351.733 374.000,352.000 373.867,352.000 373.200 C 352.000 372.700,352.267 372.400,352.712 372.400 C 353.103 372.400,353.683 372.040,354.000 371.600 C 354.339 371.130,355.035 370.800,355.688 370.800 C 356.533 370.800,356.800 370.608,356.800 370.000 C 356.800 369.467,357.067 369.200,357.600 369.200 C 358.133 369.200,358.400 368.933,358.400 368.400 C 358.400 367.867,358.667 367.600,359.200 367.600 C 359.733 367.600,360.000 367.333,360.000 366.800 C 360.000 366.356,360.267 366.000,360.600 366.000 C 360.933 366.000,361.200 365.644,361.200 365.200 C 361.200 364.667,361.467 364.400,362.000 364.400 C 362.533 364.400,362.800 364.133,362.800 363.600 C 362.800 363.067,363.067 362.800,363.600 362.800 C 364.218 362.800,364.400 362.533,364.400 361.627 C 364.400 360.805,364.640 360.378,365.200 360.200 C 365.640 360.060,366.000 359.598,366.000 359.173 C 366.000 358.667,366.276 358.400,366.800 358.400 C 367.459 358.400,367.600 358.133,367.600 356.888 C 367.600 355.835,367.843 355.202,368.400 354.800 C 368.942 354.409,369.200 353.765,369.200 352.800 C 369.200 351.835,369.458 351.191,370.000 350.800 C 370.686 350.305,370.800 349.765,370.800 347.000 C 370.800 344.235,370.914 343.695,371.600 343.200 C 372.865 342.288,372.865 68.912,371.600 68.000 C 370.940 67.524,370.800 66.965,370.800 64.800 C 370.800 62.635,370.660 62.076,370.000 61.600 C 369.426 61.186,369.200 60.565,369.200 59.400 C 369.200 58.235,368.974 57.614,368.400 57.200 C 367.959 56.882,367.600 56.165,367.600 55.600 C 367.600 55.035,367.241 54.318,366.800 54.000 C 366.330 53.661,366.000 52.965,366.000 52.312 C 366.000 51.467,365.808 51.200,365.200 51.200 C 364.738 51.200,364.400 50.933,364.400 50.569 C 364.400 50.221,363.680 49.246,362.800 48.400 C 361.920 47.554,361.200 46.656,361.200 46.403 C 361.200 46.150,360.975 45.708,360.700 45.420 C 360.425 45.133,359.935 44.516,359.612 44.049 C 359.288 43.582,358.785 43.200,358.494 43.200 C 358.202 43.200,357.530 42.795,357.001 42.300 C 355.301 40.710,354.846 40.400,354.217 40.400 C 353.867 40.400,353.600 40.054,353.600 39.600 C 353.600 38.933,353.333 38.800,352.000 38.800 C 350.667 38.800,350.400 38.667,350.400 38.000 C 350.400 37.333,350.133 37.200,348.800 37.200 C 347.467 37.200,347.200 37.067,347.200 36.400 C 347.200 35.685,346.933 35.600,344.688 35.600 C 342.635 35.600,342.071 35.454,341.600 34.800 C 340.688 33.535,58.912 33.535,58.000 34.800 M306.071 76.542 C 315.911 80.101,322.969 88.029,324.984 97.785 C 325.509 100.327,325.600 105.598,325.600 133.583 L 325.600 166.400 315.813 166.400 L 306.027 166.400 305.913 133.900 L 305.800 101.400 304.800 99.619 C 302.075 94.765,301.759 94.709,277.800 94.874 C 257.346 95.014,258.198 94.902,255.659 97.794 C 253.325 100.452,253.200 101.155,253.200 111.637 C 253.200 128.909,252.620 128.518,278.600 128.800 L 297.000 129.000 297.000 138.600 L 297.000 148.200 278.241 148.304 C 258.227 148.415,256.395 148.282,251.513 146.371 C 243.636 143.288,236.997 136.020,234.511 127.758 C 233.462 124.272,233.447 99.372,234.492 95.914 C 237.254 86.774,243.874 79.832,252.900 76.612 C 256.390 75.367,258.481 75.272,280.800 75.352 L 303.000 75.431 306.071 76.542 M209.776 143.231 C 214.733 144.112,216.610 144.538,216.980 144.864 C 217.189 145.049,217.729 145.199,218.180 145.198 C 220.353 145.192,229.383 149.507,234.305 152.903 C 239.562 156.530,250.000 167.522,250.000 169.431 C 250.000 169.599,250.249 170.021,250.553 170.369 C 251.941 171.955,255.713 180.449,256.429 183.600 C 256.604 184.370,256.947 185.720,257.191 186.600 C 259.390 194.514,259.483 235.887,257.321 244.600 C 256.994 245.920,256.639 247.450,256.533 248.000 C 256.341 248.995,255.828 250.369,255.153 251.695 C 254.959 252.077,254.800 252.575,254.800 252.803 C 254.800 254.480,249.605 263.595,246.252 267.800 C 240.029 275.605,229.073 283.494,221.426 285.676 C 220.532 285.931,219.620 286.261,219.400 286.408 C 219.006 286.672,216.556 287.326,214.200 287.796 C 207.280 289.178,207.076 289.184,168.947 289.192 L 131.293 289.200 131.052 288.300 C 130.518 286.309,130.775 250.518,131.327 250.061 C 131.697 249.754,142.887 249.591,169.027 249.512 L 206.200 249.400 208.807 248.094 C 213.755 245.615,217.024 241.687,218.372 236.600 C 218.964 234.363,218.955 196.999,218.361 195.160 C 216.167 188.363,211.546 184.123,204.675 182.603 C 199.913 181.549,131.844 181.716,127.631 182.792 C 120.456 184.624,115.620 189.629,114.452 196.433 C 114.129 198.313,114.000 217.015,114.000 261.890 C 114.000 318.809,113.941 324.737,113.367 324.957 C 112.025 325.472,75.388 325.226,74.665 324.697 C 73.588 323.910,73.852 196.807,74.944 190.400 C 75.700 185.962,76.773 182.110,78.037 179.304 C 78.456 178.372,78.800 177.452,78.800 177.260 C 78.800 176.784,81.588 171.417,82.987 169.200 C 87.778 161.607,95.690 154.112,103.200 150.055 C 106.134 148.470,109.629 146.800,110.012 146.800 C 110.231 146.800,110.723 146.641,111.105 146.447 C 112.431 145.772,113.805 145.259,114.800 145.067 C 115.350 144.961,116.790 144.600,118.000 144.265 C 119.210 143.930,121.280 143.489,122.600 143.286 C 126.133 142.742,206.738 142.691,209.776 143.231 " stroke="none" fill="#002a64" fill-rule="evenodd"></path><path id="path2" d="M256.700 75.603 C 246.503 77.377,237.646 85.478,234.492 95.914 C 233.447 99.372,233.462 124.272,234.511 127.758 C 236.997 136.020,243.636 143.288,251.513 146.371 C 256.395 148.282,258.227 148.415,278.241 148.304 L 297.000 148.200 297.000 138.600 L 297.000 129.000 278.600 128.800 C 252.620 128.518,253.200 128.909,253.200 111.637 C 253.200 101.155,253.325 100.452,255.659 97.794 C 258.198 94.902,257.346 95.014,277.800 94.874 C 301.759 94.709,302.075 94.765,304.800 99.619 L 305.800 101.400 305.913 133.900 L 306.027 166.400 315.813 166.400 L 325.600 166.400 325.600 133.583 C 325.600 105.598,325.509 100.327,324.984 97.785 C 322.969 88.029,315.911 80.101,306.071 76.542 L 303.000 75.431 280.800 75.352 C 268.590 75.308,257.745 75.421,256.700 75.603 M122.600 143.286 C 121.280 143.489,119.210 143.930,118.000 144.265 C 116.790 144.600,115.350 144.961,114.800 145.067 C 113.805 145.259,112.431 145.772,111.105 146.447 C 110.723 146.641,110.231 146.800,110.012 146.800 C 109.629 146.800,106.134 148.470,103.200 150.055 C 95.690 154.112,87.778 161.607,82.987 169.200 C 81.588 171.417,78.800 176.784,78.800 177.260 C 78.800 177.452,78.456 178.372,78.037 179.304 C 76.773 182.110,75.700 185.962,74.944 190.400 C 73.852 196.807,73.588 323.910,74.665 324.697 C 75.388 325.226,112.025 325.472,113.367 324.957 C 113.941 324.737,114.000 318.809,114.000 261.890 C 114.000 217.015,114.129 198.313,114.452 196.433 C 115.599 189.751,120.426 184.667,127.375 182.823 C 129.311 182.309,129.822 182.063,129.000 182.041 C 124.123 181.910,117.892 186.495,115.122 192.253 L 113.800 195.000 113.600 259.600 L 113.400 324.200 94.000 324.200 L 74.600 324.200 74.600 261.000 C 74.600 193.629,74.645 192.016,76.740 184.800 C 76.963 184.030,77.266 182.950,77.413 182.400 C 77.560 181.850,78.022 180.637,78.440 179.704 C 78.858 178.772,79.200 177.843,79.200 177.641 C 79.200 177.010,82.383 171.125,84.131 168.523 C 92.528 156.025,106.220 146.821,120.000 144.409 C 121.430 144.158,123.368 143.784,124.306 143.577 C 126.595 143.071,206.226 143.075,208.494 143.580 C 209.432 143.790,211.460 144.162,213.000 144.409 C 214.540 144.656,216.160 145.004,216.600 145.183 C 217.040 145.362,218.210 145.741,219.200 146.024 C 220.190 146.307,221.171 146.688,221.380 146.870 C 221.589 147.051,222.039 147.202,222.380 147.203 C 223.117 147.208,230.723 151.012,231.631 151.831 C 231.979 152.144,232.446 152.400,232.670 152.400 C 232.893 152.400,233.402 152.760,233.800 153.200 C 234.198 153.640,234.689 154.000,234.891 154.000 C 235.092 154.000,235.485 154.225,235.762 154.500 C 236.040 154.775,237.226 155.810,238.396 156.800 C 242.378 160.167,245.196 163.323,248.577 168.200 C 250.668 171.216,254.400 178.513,254.400 179.585 C 254.400 179.945,254.549 180.411,254.730 180.620 C 254.912 180.829,255.293 181.810,255.577 182.800 C 255.861 183.790,256.238 185.050,256.416 185.600 C 256.847 186.933,257.474 190.906,258.024 195.800 C 258.570 200.654,258.278 234.583,257.649 239.400 C 256.988 244.463,255.763 249.559,254.789 251.295 C 254.575 251.677,254.400 252.193,254.400 252.442 C 254.400 253.067,250.909 260.240,249.651 262.200 C 243.126 272.368,230.917 282.296,221.400 285.172 C 220.520 285.438,219.440 285.805,219.000 285.987 C 213.033 288.456,206.625 288.800,166.627 288.800 L 131.592 288.800 131.696 269.500 L 131.800 250.200 169.200 250.000 L 206.600 249.800 209.262 248.467 C 213.614 246.289,216.868 242.656,218.419 238.242 C 219.196 236.031,219.223 235.145,219.114 215.271 L 219.000 194.600 217.740 191.940 C 215.336 186.866,209.669 182.608,204.773 182.197 L 202.600 182.015 205.400 182.749 C 211.974 184.473,216.226 188.544,218.361 195.160 C 218.955 196.999,218.964 234.363,218.372 236.600 C 217.024 241.687,213.755 245.615,208.807 248.094 L 206.200 249.400 169.027 249.512 C 142.887 249.591,131.697 249.754,131.327 250.061 C 130.775 250.518,130.518 286.309,131.052 288.300 L 131.293 289.200 168.947 289.192 C 207.076 289.184,207.280 289.178,214.200 287.796 C 216.556 287.326,219.006 286.672,219.400 286.408 C 219.620 286.261,220.532 285.931,221.426 285.676 C 229.073 283.494,240.029 275.605,246.252 267.800 C 249.605 263.595,254.800 254.480,254.800 252.803 C 254.800 252.575,254.959 252.077,255.153 251.695 C 255.828 250.369,256.341 248.995,256.533 248.000 C 256.639 247.450,256.994 245.920,257.321 244.600 C 259.483 235.887,259.390 194.514,257.191 186.600 C 256.947 185.720,256.604 184.370,256.429 183.600 C 255.713 180.449,251.941 171.955,250.553 170.369 C 250.249 170.021,250.000 169.599,250.000 169.431 C 250.000 167.522,239.562 156.530,234.305 152.903 C 229.383 149.507,220.353 145.192,218.180 145.198 C 217.729 145.199,217.189 145.049,216.980 144.864 C 216.610 144.538,214.733 144.112,209.776 143.231 C 206.738 142.691,126.133 142.742,122.600 143.286 " stroke="none" fill="#90c844" fill-rule="evenodd"></path></g></svg>